<svg
  id="naiad"
  width="100%"
  xmlns="http://www.w3.org/2000/svg"
  viewBox="0 0 424.14 975"
  style="max-width: 424.14px;"
  role="graphics-document document">
  <style
    xmlns="http://www.w3.org/1999/xhtml">@import url("https://cdnjs.cloudflare.com/ajax/libs/font-awesome/6.7.2/css/all.min.css");</style>
  <style>
#naiad{font-family:"trebuchet ms",verdana,arial,sans-serif;font-size:16px;fill:#333;}#naiad p{margin:0;}
#naiad .marker{fill:#333333;stroke:#333333;}
#naiad .marker.cross{stroke:#333333;}
#naiad span{fill:#333;color:#333;}
#naiad .flowchart-link{stroke:#333333;fill:none;}
#naiad .edgeLabel{background-color:rgba(232,232,232, 0.8);text-align:center;}
#naiad .edgeLabel p{background-color:rgba(232,232,232, 0.8);}
#naiad .edgeLabel rect{opacity:0.5;background-color:rgba(232,232,232, 0.8);fill:rgba(232,232,232, 0.8);}
</style>
  <defs>
    <marker
      id="naiad_flowchart-pointEnd"
      class="marker"
      viewBox="0 0 10 10"
      refX="10"
      refY="5"
      markerUnits="userSpaceOnUse"
      markerWidth="8"
      markerHeight="8"
      orient="auto">
      <path
        d="M 0 0 L 10 5 L 0 10 z"
        class="arrowMarkerPath" />
    </marker>
    <marker
      id="naiad_flowchart-pointStart"
      class="marker"
      viewBox="0 0 10 10"
      refX="0"
      refY="5"
      markerUnits="userSpaceOnUse"
      markerWidth="8"
      markerHeight="8"
      orient="auto">
      <path
        d="M 0 5 L 10 10 L 10 0 z"
        class="arrowMarkerPath" />
    </marker>
    <marker
      id="naiad_flowchart-circleEnd"
      class="marker"
      viewBox="0 0 10 10"
      refX="11"
      refY="5"
      markerUnits="userSpaceOnUse"
      markerWidth="11"
      markerHeight="11"
      orient="auto">
      <circle
        cx="5"
        cy="5"
        r="5"
        class="arrowMarkerPath" />
    </marker>
    <marker
      id="naiad_flowchart-circleStart"
      class="marker"
      viewBox="0 0 10 10"
      refX="-1"
      refY="5"
      markerUnits="userSpaceOnUse"
      markerWidth="11"
      markerHeight="11"
      orient="auto">
      <circle
        cx="5"
        cy="5"
        r="5"
        class="arrowMarkerPath" />
    </marker>
    <marker
      id="naiad_flowchart-crossEnd"
      class="marker cross"
      viewBox="0 0 11 11"
      refX="12"
      refY="5.2"
      markerUnits="userSpaceOnUse"
      markerWidth="11"
      markerHeight="11"
      orient="auto">
      <path
        d="M 1,1 l 9,9 M 10,1 l -9,9"
        class="arrowMarkerPath"
        style="stroke-width: 2;" />
    </marker>
    <marker
      id="naiad_flowchart-crossStart"
      class="marker cross"
      viewBox="0 0 11 11"
      refX="-1"
      refY="5.2"
      markerUnits="userSpaceOnUse"
      markerWidth="11"
      markerHeight="11"
      orient="auto">
      <path
        d="M 1,1 l 9,9 M 10,1 l -9,9"
        class="arrowMarkerPath"
        style="stroke-width: 2;" />
    </marker>
  </defs>
  <g
    transform="translate(20,20)">
    <rect
      x="0"
      y="460.2"
      width="210.32"
      height="474.8"
      rx="6"
      ry="6"
      fill="#ffffde"
      stroke="#aaaa33"
      class="cluster" />
    <path
      d="M213.72,48 L213.72,56.25 C213.72,64.5 213.72,81 213.72,97.5 C213.72,114 213.72,130.5 213.72,138.75 L213.72,147"
      fill="none"
      stroke="#333333"
      stroke-width="2"
      marker-end="url(#naiad_flowchart-pointEnd)"
      class="flowchart-link" />
    <rect
      x="182.62"
      y="83"
      width="62.2"
      height="29"
      fill="rgba(232,232,232,0.8)"
      stroke="none"
      class="edgeLabel" />
    <foreignObject
      x="182.62"
      y="83"
      width="62.2"
      height="29"
      class="edgeLabel">
      <div
        xmlns="http://www.w3.org/1999/xhtml"
        style="display: table-cell; white-space: nowrap; text-align: center; vertical-align: middle; width: 62.2px; height: 29px;">
        <span>
          <p>submit</p>
        </span>
      </div>
    </foreignObject>
    <path
      d="M248.42,214.2 L256.94,222.45 C265.46,230.7 282.5,247.2 291.02,263.7 C299.54,280.2 299.54,296.7 299.54,304.95 L299.54,313.2"
      fill="none"
      stroke="#333333"
      stroke-width="2"
      marker-end="url(#naiad_flowchart-pointEnd)"
      class="flowchart-link" />
    <rect
      x="283.84"
      y="249.2"
      width="31.4"
      height="29"
      fill="rgba(232,232,232,0.8)"
      stroke="none"
      class="edgeLabel" />
    <foreignObject
      x="283.84"
      y="249.2"
      width="31.4"
      height="29"
      class="edgeLabel">
      <div
        xmlns="http://www.w3.org/1999/xhtml"
        style="display: table-cell; white-space: nowrap; text-align: center; vertical-align: middle; width: 31.4px; height: 29px;">
        <span>
          <p>no</p>
        </span>
      </div>
    </foreignObject>
    <path
      d="M163.02,214.2 L150.57,222.45 C138.13,230.7 113.23,247.2 100.79,263.7 C88.34,280.2 88.34,296.7 88.34,304.95 L88.34,313.2"
      fill="none"
      stroke="#333333"
      stroke-width="2"
      marker-end="url(#naiad_flowchart-pointEnd)"
      class="flowchart-link" />
    <rect
      x="68.79"
      y="249.2"
      width="39.1"
      height="29"
      fill="rgba(232,232,232,0.8)"
      stroke="none"
      class="edgeLabel" />
    <foreignObject
      x="68.79"
      y="249.2"
      width="39.1"
      height="29"
      class="edgeLabel">
      <div
        xmlns="http://www.w3.org/1999/xhtml"
        style="display: table-cell; white-space: nowrap; text-align: center; vertical-align: middle; width: 39.1px; height: 29px;">
        <span>
          <p>yes</p>
        </span>
      </div>
    </foreignObject>
    <path
      d="M88.34,361.2 L88.34,369.45 C88.34,377.7 88.34,394.2 88.34,410.7 C88.34,427.2 88.34,443.7 88.34,457.78 C88.34,471.87 88.34,483.53 88.34,489.37 L88.34,495.2"
      fill="none"
      stroke="#333333"
      stroke-width="3.5"
      marker-end="url(#naiad_flowchart-pointEnd)"
      class="flowchart-link" />
    <rect
      x="53.39"
      y="420.95"
      width="69.9"
      height="29"
      fill="rgba(232,232,232,0.8)"
      stroke="none"
      class="edgeLabel" />
    <foreignObject
      x="53.39"
      y="420.95"
      width="69.9"
      height="29"
      class="edgeLabel">
      <div
        xmlns="http://www.w3.org/1999/xhtml"
        style="display: table-cell; white-space: nowrap; text-align: center; vertical-align: middle; width: 69.9px; height: 29px;">
        <span>
          <p>process</p>
        </span>
      </div>
    </foreignObject>
    <path
      d="M111.48,543.2 L119.44,551.45 C127.39,559.7 143.3,576.2 165.61,594.36 C187.92,612.52 216.62,632.33 230.97,642.24 L245.32,652.15"
      fill="none"
      stroke="#333333"
      stroke-width="2"
      stroke-dasharray="2"
      marker-end="url(#naiad_flowchart-pointEnd)"
      class="flowchart-link" />
    <rect
      x="128.12"
      y="578.2"
      width="62.2"
      height="29"
      fill="rgba(232,232,232,0.8)"
      stroke="none"
      class="edgeLabel" />
    <foreignObject
      x="128.12"
      y="578.2"
      width="62.2"
      height="29"
      class="edgeLabel">
      <div
        xmlns="http://www.w3.org/1999/xhtml"
        style="display: table-cell; white-space: nowrap; text-align: center; vertical-align: middle; width: 62.2px; height: 29px;">
        <span>
          <p>lookup</p>
        </span>
      </div>
    </foreignObject>
    <path
      d="M94.8,543.2 L97.02,551.45 C99.24,559.7 103.68,576.2 103.93,592.7 C104.19,609.2 100.26,625.7 98.3,633.95 L96.34,642.2"
      fill="none"
      stroke="#333333"
      stroke-width="2"
      marker-end="url(#naiad_flowchart-pointEnd)"
      class="flowchart-link" />
    <path
      d="M78.48,642.2 L76.05,633.95 C73.63,625.7 68.79,609.2 69.11,592.7 C69.42,576.2 74.9,559.7 77.64,551.45 L80.37,543.2"
      fill="none"
      stroke="#333333"
      stroke-width="2"
      marker-end="url(#naiad_flowchart-pointEnd)"
      class="flowchart-link" />
    <rect
      x="44.4"
      y="578.2"
      width="39.1"
      height="29"
      fill="rgba(232,232,232,0.8)"
      stroke="none"
      class="edgeLabel" />
    <foreignObject
      x="44.4"
      y="578.2"
      width="39.1"
      height="29"
      class="edgeLabel">
      <div
        xmlns="http://www.w3.org/1999/xhtml"
        style="display: table-cell; white-space: nowrap; text-align: center; vertical-align: middle; width: 39.1px; height: 29px;">
        <span>
          <p>yes</p>
        </span>
      </div>
    </foreignObject>
    <path
      d="M88.34,709.4 L88.34,717.65 C88.34,725.9 88.34,742.4 88.34,758.9 C88.34,775.4 88.34,791.9 88.34,800.15 L88.34,808.4"
      fill="none"
      stroke="#333333"
      stroke-width="2"
      marker-end="url(#naiad_flowchart-pointEnd)"
      class="flowchart-link" />
    <rect
      x="72.64"
      y="744.4"
      width="31.4"
      height="29"
      fill="rgba(232,232,232,0.8)"
      stroke="none"
      class="edgeLabel" />
    <foreignObject
      x="72.64"
      y="744.4"
      width="31.4"
      height="29"
      class="edgeLabel">
      <div
        xmlns="http://www.w3.org/1999/xhtml"
        style="display: table-cell; white-space: nowrap; text-align: center; vertical-align: middle; width: 31.4px; height: 29px;">
        <span>
          <p>no</p>
        </span>
      </div>
    </foreignObject>
    <path
      d="M195.77,0 H231.67 A24,24 0 0 1 231.67,48 H195.77 A24,24 0 0 1 195.77,0 Z"
      fill="#dbeafe"
      stroke="#2563eb"
      stroke-width="2" />
    <foreignObject
      x="171.77"
      y="0"
      width="83.9"
      height="48"
      class="nodeLabel">
      <div
        xmlns="http://www.w3.org/1999/xhtml"
        style="display: table-cell; white-space: nowrap; text-align: center; vertical-align: middle; width: 83.9px; height: 48px;">
        <span>
          <p>Request</p>
        </span>
      </div>
    </foreignObject>
    <path
      d="M213.72,147 L310.18,180.6 L213.72,214.2 L117.26,180.6 Z"
      fill="#ECECFF"
      stroke="#9370DB" />
    <foreignObject
      x="117.26"
      y="147"
      width="192.92"
      height="67.2"
      class="nodeLabel">
      <div
        xmlns="http://www.w3.org/1999/xhtml"
        style="display: table-cell; white-space: nowrap; text-align: center; vertical-align: middle; width: 192.92px; height: 67.2px;">
        <span>
          <p>Authenticated?</p>
        </span>
      </div>
    </foreignObject>
    <path
      d="M214.94,313.2 H384.14 V361.2 H214.94 Z M222.94,313.2 V361.2 M376.14,313.2 V361.2"
      fill="#fee2e2"
      stroke="#dc2626"
      stroke-width="2" />
    <foreignObject
      x="214.94"
      y="313.2"
      width="169.2"
      height="48"
      class="nodeLabel">
      <div
        xmlns="http://www.w3.org/1999/xhtml"
        style="display: table-cell; white-space: nowrap; text-align: center; vertical-align: middle; width: 169.2px; height: 48px;">
        <span>
          <p>401 Unauthorized</p>
        </span>
      </div>
    </foreignObject>
    <path
      d="M42.38,313.2 L164.94,313.2 L134.3,361.2 L11.74,361.2 Z"
      fill="#ECECFF"
      stroke="#9370DB" />
    <foreignObject
      x="11.74"
      y="313.2"
      width="153.2"
      height="48"
      class="nodeLabel">
      <div
        xmlns="http://www.w3.org/1999/xhtml"
        style="display: table-cell; white-space: nowrap; text-align: center; vertical-align: middle; width: 153.2px; height: 48px;">
        <span>
          <p>Validate payload</p>
        </span>
      </div>
    </foreignObject>
    <path
      d="M51.39,495.2 H125.29 Q130.29,495.2 130.29,500.2 V538.2 Q130.29,543.2 125.29,543.2 H51.39 Q46.39,543.2 46.39,538.2 V500.2 Q46.39,495.2 51.39,495.2 Z"
      fill="#ECECFF"
      stroke="#9370DB" />
    <foreignObject
      x="46.39"
      y="495.2"
      width="83.9"
      height="48"
      class="nodeLabel">
      <div
        xmlns="http://www.w3.org/1999/xhtml"
        style="display: table-cell; white-space: nowrap; text-align: center; vertical-align: middle; width: 83.9px; height: 48px;">
        <span>
          <p>Handler</p>
        </span>
      </div>
    </foreignObject>
    <path
      d="M245.32,656.6 A34.25,4.8 0 0 1 313.82,656.6 V695 A34.25,4.8 0 0 1 245.32,695 V656.6 Z M245.32,656.6 A34.25,4.8 0 0 0 313.82,656.6"
      fill="#ECECFF"
      stroke="#9370DB" />
    <foreignObject
      x="245.32"
      y="651.8"
      width="68.5"
      height="48"
      class="nodeLabel">
      <div
        xmlns="http://www.w3.org/1999/xhtml"
        style="display: table-cell; white-space: nowrap; text-align: center; vertical-align: middle; width: 68.5px; height: 48px;">
        <span>
          <p>Cache</p>
        </span>
      </div>
    </foreignObject>
    <path
      d="M88.34,642.2 L141.68,675.8 L88.34,709.4 L35,675.8 Z"
      fill="#ECECFF"
      stroke="#9370DB" />
    <foreignObject
      x="35"
      y="642.2"
      width="106.68"
      height="67.2"
      class="nodeLabel">
      <div
        xmlns="http://www.w3.org/1999/xhtml"
        style="display: table-cell; white-space: nowrap; text-align: center; vertical-align: middle; width: 106.68px; height: 67.2px;">
        <span>
          <p>Retry?</p>
        </span>
      </div>
    </foreignObject>
    <path
      d="M88.34,808.4 A45.8,45.8 0 1 1 88.34,900 A45.8,45.8 0 1 1 88.34,808.4 Z M88.34,815.27 A38.93,38.93 0 1 1 88.34,893.13 A38.93,38.93 0 1 1 88.34,815.27 Z"
      fill="#ECECFF"
      stroke="#9370DB" />
    <foreignObject
      x="42.54"
      y="808.4"
      width="91.6"
      height="91.6"
      class="nodeLabel">
      <div
        xmlns="http://www.w3.org/1999/xhtml"
        style="display: table-cell; white-space: nowrap; text-align: center; vertical-align: middle; width: 91.6px; height: 91.6px;">
        <span>
          <p>Complete</p>
        </span>
      </div>
    </foreignObject>
    <text
      x="105.16"
      y="474.2"
      text-anchor="middle"
      dominant-baseline="middle"
      font-size="14px"
      font-family="Arial, sans-serif"
      font-weight="bold"
      fill="#333333"
      class="cluster-label">Async Worker</text>
  </g>
</svg>