<svg
  id="naiad"
  width="100%"
  xmlns="http://www.w3.org/2000/svg"
  viewBox="0 0 252.4 195"
  style="max-width: 252.4px;"
  role="graphics-document document">
  <style
    xmlns="http://www.w3.org/1999/xhtml">@import url("https://cdnjs.cloudflare.com/ajax/libs/font-awesome/6.7.2/css/all.min.css");</style>
  <path
    d="M 80.8 87.5 C 100.8 87.5, 100.8 37.5, 120.8 37.5"
    fill="none"
    stroke="#87CEEB"
    stroke-width="2" />
  <path
    d="M 80.8 87.5 C 100.8 87.5, 100.8 87.5, 120.8 87.5"
    fill="none"
    stroke="#87CEEB"
    stroke-width="2" />
  <path
    d="M 80.8 87.5 C 100.8 87.5, 100.8 137.5, 120.8 137.5"
    fill="none"
    stroke="#87CEEB"
    stroke-width="2" />
  <path
    d="M20,105 V75 Q20,70 25,70 H75.8 Q80.8,70 80.8,75 V105 Z"
    fill="#FFB6C1"
    stroke="none" />
  <line
    x1="20"
    y1="105"
    x2="80.8"
    y2="105"
    stroke="#B27F87"
    stroke-width="2" />
  <text
    x="50.4"
    y="87.5"
    text-anchor="middle"
    dominant-baseline="middle"
    font-size="14px"
    font-family="Arial, sans-serif"
    font-weight="bold">Root</text>
  <path
    d="M120.8,55 V25 Q120.8,20 125.8,20 H207.4 Q212.4,20 212.4,25 V55 Z"
    fill="#87CEEB"
    stroke="none" />
  <line
    x1="120.8"
    y1="55"
    x2="212.4"
    y2="55"
    stroke="#5E90A4"
    stroke-width="2" />
  <text
    x="166.6"
    y="37.5"
    text-anchor="middle"
    dominant-baseline="middle"
    font-size="14px"
    font-family="Arial, sans-serif">Branch A</text>
  <path
    d="M120.8,105 V75 Q120.8,70 125.8,70 H207.4 Q212.4,70 212.4,75 V105 Z"
    fill="#87CEEB"
    stroke="none" />
  <line
    x1="120.8"
    y1="105"
    x2="212.4"
    y2="105"
    stroke="#5E90A4"
    stroke-width="2" />
  <text
    x="166.6"
    y="87.5"
    text-anchor="middle"
    dominant-baseline="middle"
    font-size="14px"
    font-family="Arial, sans-serif">Branch B</text>
  <path
    d="M120.8,155 V125 Q120.8,120 125.8,120 H207.4 Q212.4,120 212.4,125 V155 Z"
    fill="#87CEEB"
    stroke="none" />
  <line
    x1="120.8"
    y1="155"
    x2="212.4"
    y2="155"
    stroke="#5E90A4"
    stroke-width="2" />
  <text
    x="166.6"
    y="137.5"
    text-anchor="middle"
    dominant-baseline="middle"
    font-size="14px"
    font-family="Arial, sans-serif">Branch C</text>
</svg>