<svg
  id="naiad"
  width="100%"
  xmlns="http://www.w3.org/2000/svg"
  viewBox="0 0 1340 405"
  style="max-width: 1340px;"
  role="graphics-document document">
  <style
    xmlns="http://www.w3.org/1999/xhtml">@import url("https://cdnjs.cloudflare.com/ajax/libs/font-awesome/6.7.2/css/all.min.css");</style>
  <defs>
    <marker
      id="journey-arrow"
      refX="9"
      refY="3.5"
      markerWidth="10"
      markerHeight="7"
      orient="auto">
      <path
        d="M0,0 L10,3.5 L0,7 Z"
        class="arrowMarkerPath" />
    </marker>
  </defs>
  <text
    x="670"
    y="40"
    text-anchor="middle"
    dominant-baseline="middle"
    font-size="20px"
    font-family="Arial, sans-serif"
    font-weight="bold"
    fill="#333">Team Collaboration</text>
  <circle
    cx="24"
    cy="79"
    r="7"
    fill="#6BB36B"
    stroke="#333" />
  <text
    x="40"
    y="79"
    text-anchor="start"
    dominant-baseline="middle"
    font-size="14px"
    font-family="Arial, sans-serif"
    fill="#333">PM</text>
  <circle
    cx="24"
    cy="103"
    r="7"
    fill="#5B8FF9"
    stroke="#333" />
  <text
    x="40"
    y="103"
    text-anchor="start"
    dominant-baseline="middle"
    font-size="14px"
    font-family="Arial, sans-serif"
    fill="#333">Dev</text>
  <circle
    cx="24"
    cy="127"
    r="7"
    fill="#F6BD16"
    stroke="#333" />
  <text
    x="40"
    y="127"
    text-anchor="start"
    dominant-baseline="middle"
    font-size="14px"
    font-family="Arial, sans-serif"
    fill="#333">Designer</text>
  <circle
    cx="24"
    cy="151"
    r="7"
    fill="#E8684A"
    stroke="#333" />
  <text
    x="40"
    y="151"
    text-anchor="start"
    dominant-baseline="middle"
    font-size="14px"
    font-family="Arial, sans-serif"
    fill="#333">Lead</text>
  <circle
    cx="24"
    cy="175"
    r="7"
    fill="#9270CA"
    stroke="#333" />
  <text
    x="40"
    y="175"
    text-anchor="start"
    dominant-baseline="middle"
    font-size="14px"
    font-family="Arial, sans-serif"
    fill="#333">QA</text>
  <rect
    x="150"
    y="60"
    width="350"
    height="38"
    rx="5"
    ry="5"
    fill="#E1E5F2"
    stroke="none" />
  <text
    x="325"
    y="79"
    text-anchor="middle"
    dominant-baseline="middle"
    font-size="14px"
    font-family="Arial, sans-serif"
    font-weight="bold"
    fill="#333">Planning</text>
  <rect
    x="150"
    y="106"
    width="150"
    height="55"
    rx="5"
    ry="5"
    fill="#E1E5F2"
    stroke="#8893C2"
    stroke-width="1.5" />
  <text
    x="225"
    y="133.5"
    text-anchor="middle"
    dominant-baseline="middle"
    font-size="13px"
    font-family="Arial, sans-serif"
    fill="#333">Define requirements</text>
  <circle
    cx="164"
    cy="106"
    r="6"
    fill="#6BB36B"
    stroke="#333" />
  <circle
    cx="179"
    cy="106"
    r="6"
    fill="#5B8FF9"
    stroke="#333" />
  <line
    x1="225"
    y1="161"
    x2="225"
    y2="279"
    stroke="#999"
    stroke-dasharray="3,3" />
  <rect
    x="350"
    y="106"
    width="150"
    height="55"
    rx="5"
    ry="5"
    fill="#E1E5F2"
    stroke="#8893C2"
    stroke-width="1.5" />
  <text
    x="425"
    y="133.5"
    text-anchor="middle"
    dominant-baseline="middle"
    font-size="13px"
    font-family="Arial, sans-serif"
    fill="#333">Create design</text>
  <circle
    cx="364"
    cy="106"
    r="6"
    fill="#F6BD16"
    stroke="#333" />
  <circle
    cx="379"
    cy="106"
    r="6"
    fill="#6BB36B"
    stroke="#333" />
  <line
    x1="425"
    y1="161"
    x2="425"
    y2="317"
    stroke="#999"
    stroke-dasharray="3,3" />
  <rect
    x="550"
    y="60"
    width="350"
    height="38"
    rx="5"
    ry="5"
    fill="#FBF8CC"
    stroke="none" />
  <text
    x="725"
    y="79"
    text-anchor="middle"
    dominant-baseline="middle"
    font-size="14px"
    font-family="Arial, sans-serif"
    font-weight="bold"
    fill="#333">Development</text>
  <rect
    x="550"
    y="106"
    width="150"
    height="55"
    rx="5"
    ry="5"
    fill="#FBF8CC"
    stroke="#C7BE50"
    stroke-width="1.5" />
  <text
    x="625"
    y="133.5"
    text-anchor="middle"
    dominant-baseline="middle"
    font-size="13px"
    font-family="Arial, sans-serif"
    fill="#333">Write code</text>
  <circle
    cx="564"
    cy="106"
    r="6"
    fill="#5B8FF9"
    stroke="#333" />
  <line
    x1="625"
    y1="161"
    x2="625"
    y2="279"
    stroke="#999"
    stroke-dasharray="3,3" />
  <rect
    x="750"
    y="106"
    width="150"
    height="55"
    rx="5"
    ry="5"
    fill="#FBF8CC"
    stroke="#C7BE50"
    stroke-width="1.5" />
  <text
    x="825"
    y="133.5"
    text-anchor="middle"
    dominant-baseline="middle"
    font-size="13px"
    font-family="Arial, sans-serif"
    fill="#333">Code review</text>
  <circle
    cx="764"
    cy="106"
    r="6"
    fill="#5B8FF9"
    stroke="#333" />
  <circle
    cx="779"
    cy="106"
    r="6"
    fill="#E8684A"
    stroke="#333" />
  <line
    x1="825"
    y1="161"
    x2="825"
    y2="317"
    stroke="#999"
    stroke-dasharray="3,3" />
  <rect
    x="950"
    y="60"
    width="350"
    height="38"
    rx="5"
    ry="5"
    fill="#FCE1EC"
    stroke="none" />
  <text
    x="1125"
    y="79"
    text-anchor="middle"
    dominant-baseline="middle"
    font-size="14px"
    font-family="Arial, sans-serif"
    font-weight="bold"
    fill="#333">Testing</text>
  <rect
    x="950"
    y="106"
    width="150"
    height="55"
    rx="5"
    ry="5"
    fill="#FCE1EC"
    stroke="#D98AA8"
    stroke-width="1.5" />
  <text
    x="1025"
    y="133.5"
    text-anchor="middle"
    dominant-baseline="middle"
    font-size="13px"
    font-family="Arial, sans-serif"
    fill="#333">Test features</text>
  <circle
    cx="964"
    cy="106"
    r="6"
    fill="#9270CA"
    stroke="#333" />
  <circle
    cx="979"
    cy="106"
    r="6"
    fill="#5B8FF9"
    stroke="#333" />
  <line
    x1="1025"
    y1="161"
    x2="1025"
    y2="279"
    stroke="#999"
    stroke-dasharray="3,3" />
  <rect
    x="1150"
    y="106"
    width="150"
    height="55"
    rx="5"
    ry="5"
    fill="#FCE1EC"
    stroke="#D98AA8"
    stroke-width="1.5" />
  <text
    x="1225"
    y="133.5"
    text-anchor="middle"
    dominant-baseline="middle"
    font-size="13px"
    font-family="Arial, sans-serif"
    fill="#333">Fix bugs</text>
  <circle
    cx="1164"
    cy="106"
    r="6"
    fill="#5B8FF9"
    stroke="#333" />
  <line
    x1="1225"
    y1="161"
    x2="1225"
    y2="355"
    stroke="#999"
    stroke-dasharray="3,3" />
  <path
    d="M 150 196 L 1325 196"
    fill="none"
    stroke="#333"
    stroke-width="3"
    marker-end="url(#journey-arrow)" />
  <circle
    cx="225"
    cy="294"
    r="15"
    fill="#F0EAD0"
    stroke="#8C8455" />
  <circle
    cx="220"
    cy="291"
    r="1.6"
    fill="#3F3F3F" />
  <circle
    cx="230"
    cy="291"
    r="1.6"
    fill="#3F3F3F" />
  <path
    d="M 219 296 Q 225 302 231 296"
    fill="none"
    stroke="#3F3F3F"
    stroke-width="1.5" />
  <circle
    cx="425"
    cy="332"
    r="15"
    fill="#F0EAD0"
    stroke="#8C8455" />
  <circle
    cx="420"
    cy="329"
    r="1.6"
    fill="#3F3F3F" />
  <circle
    cx="430"
    cy="329"
    r="1.6"
    fill="#3F3F3F" />
  <path
    d="M 419 336 L 431 336"
    fill="none"
    stroke="#3F3F3F"
    stroke-width="1.5" />
  <circle
    cx="625"
    cy="294"
    r="15"
    fill="#F0EAD0"
    stroke="#8C8455" />
  <circle
    cx="620"
    cy="291"
    r="1.6"
    fill="#3F3F3F" />
  <circle
    cx="630"
    cy="291"
    r="1.6"
    fill="#3F3F3F" />
  <path
    d="M 619 296 Q 625 302 631 296"
    fill="none"
    stroke="#3F3F3F"
    stroke-width="1.5" />
  <circle
    cx="825"
    cy="332"
    r="15"
    fill="#F0EAD0"
    stroke="#8C8455" />
  <circle
    cx="820"
    cy="329"
    r="1.6"
    fill="#3F3F3F" />
  <circle
    cx="830"
    cy="329"
    r="1.6"
    fill="#3F3F3F" />
  <path
    d="M 819 336 L 831 336"
    fill="none"
    stroke="#3F3F3F"
    stroke-width="1.5" />
  <circle
    cx="1025"
    cy="294"
    r="15"
    fill="#F0EAD0"
    stroke="#8C8455" />
  <circle
    cx="1020"
    cy="291"
    r="1.6"
    fill="#3F3F3F" />
  <circle
    cx="1030"
    cy="291"
    r="1.6"
    fill="#3F3F3F" />
  <path
    d="M 1019 296 Q 1025 302 1031 296"
    fill="none"
    stroke="#3F3F3F"
    stroke-width="1.5" />
  <circle
    cx="1225"
    cy="370"
    r="15"
    fill="#F0EAD0"
    stroke="#8C8455" />
  <circle
    cx="1220"
    cy="367"
    r="1.6"
    fill="#3F3F3F" />
  <circle
    cx="1230"
    cy="367"
    r="1.6"
    fill="#3F3F3F" />
  <path
    d="M 1219 376 Q 1225 370 1231 376"
    fill="none"
    stroke="#3F3F3F"
    stroke-width="1.5" />
</svg>