<svg
  id="naiad"
  width="100%"
  xmlns="http://www.w3.org/2000/svg"
  viewBox="0 0 740 8040"
  style="max-width: 740px;"
  role="graphics-document document">
  <style
    xmlns="http://www.w3.org/1999/xhtml">@import url("https://cdnjs.cloudflare.com/ajax/libs/font-awesome/6.7.2/css/all.min.css");</style>
  <path
    d="M 40 20 C 130 20 130 20 220 20 L 220 2017.5 C 130 2017.5 130 2020 40 2020 Z"
    fill="#4CAF50"
    stroke="none" />
  <path
    d="M 40 2020 C 130 2020 130 2027.5 220 2027.5 L 220 8020 C 130 8020 130 8020 40 8020 Z"
    fill="#4CAF50"
    stroke="none" />
  <path
    d="M 240 2027.5 C 330 2027.5 330 20 420 20 L 420 4005 C 330 4005 330 5023.75 240 5023.75 Z"
    fill="#FF9800"
    stroke="none" />
  <path
    d="M 240 5023.75 C 330 5023.75 330 4015 420 4015 L 420 6140.33 C 330 6140.33 330 6621.75 240 6621.75 Z"
    fill="#FF9800"
    stroke="none" />
  <path
    d="M 240 6621.75 C 330 6621.75 330 6150.33 420 6150.33 L 420 7213 C 330 7213 330 7420.75 240 7420.75 Z"
    fill="#FF9800"
    stroke="none" />
  <path
    d="M 240 7420.75 C 330 7420.75 330 7223 420 7223 L 420 8020 C 330 8020 330 8020 240 8020 Z"
    fill="#FF9800"
    stroke="none" />
  <rect
    x="20"
    y="20"
    width="20"
    height="8000"
    fill="#4CAF50"
    stroke="#333" />
  <text
    x="15"
    y="4020"
    text-anchor="end"
    dominant-baseline="middle"
    font-size="13px"
    font-family="Arial, sans-serif"
    fill="#333">Salary</text>
  <rect
    x="220"
    y="20"
    width="20"
    height="1997.5"
    fill="#2196F3"
    stroke="#333" />
  <text
    x="215"
    y="1018.75"
    text-anchor="end"
    dominant-baseline="middle"
    font-size="13px"
    font-family="Arial, sans-serif"
    fill="#333">Savings</text>
  <rect
    x="220"
    y="2027.5"
    width="20"
    height="5992.5"
    fill="#FF9800"
    stroke="#333" />
  <text
    x="215"
    y="5023.75"
    text-anchor="end"
    dominant-baseline="middle"
    font-size="13px"
    font-family="Arial, sans-serif"
    fill="#333">Expenses</text>
  <rect
    x="420"
    y="20"
    width="20"
    height="3985"
    fill="#E91E63"
    stroke="#333" />
  <text
    x="445"
    y="2012.5"
    text-anchor="start"
    dominant-baseline="middle"
    font-size="13px"
    font-family="Arial, sans-serif"
    fill="#333">Housing</text>
  <rect
    x="420"
    y="4015"
    width="20"
    height="2125.33"
    fill="#9C27B0"
    stroke="#333" />
  <text
    x="445"
    y="5077.67"
    text-anchor="start"
    dominant-baseline="middle"
    font-size="13px"
    font-family="Arial, sans-serif"
    fill="#333">Food</text>
  <rect
    x="420"
    y="6150.33"
    width="20"
    height="1062.67"
    fill="#00BCD4"
    stroke="#333" />
  <text
    x="445"
    y="6681.67"
    text-anchor="start"
    dominant-baseline="middle"
    font-size="13px"
    font-family="Arial, sans-serif"
    fill="#333">Transport</text>
  <rect
    x="420"
    y="7223"
    width="20"
    height="797"
    fill="#FF5722"
    stroke="#333" />
  <text
    x="445"
    y="7621.5"
    text-anchor="start"
    dominant-baseline="middle"
    font-size="13px"
    font-family="Arial, sans-serif"
    fill="#333">Other</text>
</svg>